<svg xmlns="http://www.w3.org/2000/svg" width="31.5" height="29.25" viewBox="0 0 31.5 29.25">
  <g id="Icon_ionic-ios-star" data-name="Icon ionic-ios-star" transform="translate(-2.25 -3.375)" fill="none">
    <path d="M32.555,13.5H22.212L19.069,4.12a1.139,1.139,0,0,0-2.138,0L13.788,13.5H3.375A1.128,1.128,0,0,0,2.25,14.625a.827.827,0,0,0,.021.19,1.081,1.081,0,0,0,.471.795l8.5,5.991L7.98,31.085a1.128,1.128,0,0,0,.387,1.266A1.088,1.088,0,0,0,9,32.625a1.378,1.378,0,0,0,.7-.253L18,26.459l8.3,5.913a1.318,1.318,0,0,0,.7.253,1.01,1.01,0,0,0,.626-.274,1.114,1.114,0,0,0,.387-1.266L24.75,21.6l8.43-6.047.2-.176a1.18,1.18,0,0,0,.366-.752A1.191,1.191,0,0,0,32.555,13.5Z" stroke="none"/>
    <path d="M 18 7.225648880004883 L 15.68465042114258 14.13544082641602 L 15.22740936279297 15.5 L 13.78828048706055 15.5 L 6.058927536010742 15.5 L 12.39505958557129 19.96516990661621 L 13.62270927429199 20.8303108215332 L 13.13422012329102 22.25051116943359 L 10.75566864013672 29.16573333740234 L 16.83922004699707 24.82991027832031 L 18 24.00260925292969 L 19.16077995300293 24.82991027832031 L 25.23502159118652 29.15910720825195 L 22.85874938964844 22.25051116943359 L 22.37448120117188 20.84259986877441 L 23.58432006835938 19.97483062744141 L 29.82306098937988 15.5 L 22.21171951293945 15.5 L 20.77259063720703 15.5 L 20.31534957885742 14.13544082641602 L 18 7.225648880004883 M 18 3.375 C 18.48516082763672 3.375 18.91406059265137 3.663280487060547 19.06875038146973 4.120309829711914 L 22.21171951293945 13.5 L 32.55469131469727 13.5 C 33.17343902587891 13.5 33.75 14.00625038146973 33.75 14.625 C 33.75 14.91328048706055 33.56718826293945 15.18046951293945 33.38438034057617 15.37734031677246 L 33.18046951293945 15.55311965942383 L 24.75 21.60000038146973 L 28.01250076293945 31.08514976501465 C 28.17422103881836 31.54922103881836 28.01952934265137 32.05546951293945 27.62578010559082 32.35078048706055 C 27.42890930175781 32.50547027587891 27.23905944824219 32.625 27 32.625 C 26.76797103881836 32.625 26.49374961853027 32.51250076293945 26.29687118530273 32.37187957763672 L 18 26.45858955383301 L 9.703119277954102 32.37187957763672 C 9.506250381469727 32.50547027587891 9.232030868530273 32.625 9 32.625 C 8.760940551757813 32.625 8.571090698242188 32.49843978881836 8.367189407348633 32.35078048706055 C 7.980470657348633 32.05546951293945 7.818750381469727 31.54219055175781 7.980470657348633 31.08514976501465 L 11.24296951293945 21.60000038146973 L 2.742191314697266 15.6093692779541 C 2.397651672363281 15.33515930175781 2.285160064697266 15.06093978881836 2.271091461181641 14.81484031677246 C 2.257030487060547 14.75859069824219 2.25 14.68828010559082 2.25 14.625 C 2.25 14.00625038146973 2.756248474121094 13.5 3.375 13.5 L 13.78828048706055 13.5 L 16.93124961853027 4.120309829711914 C 17.08593940734863 3.663280487060547 17.51483917236328 3.375 18 3.375 Z" stroke="none" fill="#f2df00"/>
  </g>
</svg>
